<?xml version="1.0" encoding="UTF-8" standalone="no"?>
<!-- Created with Inkscape (http://www.inkscape.org/) -->

<svg
   width="64mm"
   height="16mm"
   viewBox="0 0 64 16"
   version="1.1"
   id="svg5"
   inkscape:version="1.2.1 (9c6d41e410, 2022-07-14)"
   sodipodi:docname="tradurs_text.svg"
   xmlns:inkscape="http://www.inkscape.org/namespaces/inkscape"
   xmlns:sodipodi="http://sodipodi.sourceforge.net/DTD/sodipodi-0.dtd"
   xmlns="http://www.w3.org/2000/svg"
   xmlns:svg="http://www.w3.org/2000/svg">
  <sodipodi:namedview
     id="namedview7"
     pagecolor="#ffffff"
     bordercolor="#666666"
     borderopacity="1.0"
     inkscape:showpageshadow="2"
     inkscape:pageopacity="0.0"
     inkscape:pagecheckerboard="0"
     inkscape:deskcolor="#d1d1d1"
     inkscape:document-units="mm"
     showgrid="false"
     inkscape:zoom="0.914906"
     inkscape:cx="178.16038"
     inkscape:cy="224.06673"
     inkscape:window-width="2560"
     inkscape:window-height="1377"
     inkscape:window-x="-8"
     inkscape:window-y="-8"
     inkscape:window-maximized="1"
     inkscape:current-layer="layer1" />
  <defs
     id="defs2" />
  <g
     inkscape:label="Layer 1"
     inkscape:groupmode="layer"
     id="layer1"
     transform="translate(-40.680882,-89.310446)">
    <g
       aria-label="Tradurs"
       id="text236"
       style="font-size:17.6389px;line-height:1.25;font-family:'Plus Jakarta Sans';-inkscape-font-specification:'Plus Jakarta Sans, @wght=600';font-variation-settings:'wght' 600;stroke-width:0.264583">
      <path
         d="M 45.760886,104.2506 V 92.961706 h -3.492502 v -1.852084 h 8.995839 v 1.852084 H 47.824638 V 104.2506 Z"
         style="fill:#ffa000"
         id="path4879" />
      <path
         d="m 51.564087,104.2506 v -9.542643 h 1.905001 v 1.922641 l -0.176389,-0.282223 q 0.3175,-0.934862 1.023056,-1.340556 0.705557,-0.423334 1.693335,-0.423334 h 0.582084 v 1.816807 h -0.829029 q -0.987778,0 -1.60514,0.617361 -0.599722,0.599723 -0.599722,1.728613 v 5.503334 z"
         style="fill:#ffa000"
         id="path4881" />
      <path
         d="m 60.806862,104.46227 q -0.97014,0 -1.710974,-0.33514 -0.723194,-0.35278 -1.128889,-0.9525 -0.405695,-0.61736 -0.405695,-1.44639 0,-0.77611 0.335139,-1.39347 0.352778,-0.617365 1.075973,-1.040698 0.723195,-0.423334 1.816807,-0.599723 l 3.316113,-0.546806 v 1.569862 l -2.928057,0.511525 q -0.793751,0.14111 -1.164168,0.51153 -0.370417,0.35278 -0.370417,0.91722 0,0.54681 0.405695,0.89959 0.423334,0.33514 1.075973,0.33514 0.81139,0 1.411112,-0.35278 0.617362,-0.35278 0.952501,-0.93486 0.335139,-0.59973 0.335139,-1.32292 v -2.451807 q 0,-0.705556 -0.529167,-1.146529 -0.511528,-0.458611 -1.375834,-0.458611 -0.793751,0 -1.393474,0.423333 -0.582083,0.405695 -0.864306,1.058335 l -1.658056,-0.829029 q 0.264583,-0.705556 0.864306,-1.234723 0.599722,-0.546806 1.393473,-0.846667 0.811389,-0.299861 1.710973,-0.299861 1.12889,0 1.993196,0.423333 0.881945,0.423334 1.358195,1.181807 0.49389,0.740833 0.49389,1.728612 v 6.420557 h -1.905002 v -1.72861 l 0.405695,0.0529 q -0.335139,0.58208 -0.864306,1.00541 -0.511528,0.42334 -1.181806,0.65264 -0.65264,0.22931 -1.464029,0.22931 z"
         style="fill:#ffa000"
         id="path4883" />
      <path
         d="m 72.554354,104.46227 q -1.375834,0 -2.469446,-0.65264 -1.075973,-0.67028 -1.710974,-1.79917 -0.617361,-1.12889 -0.617361,-2.539999 0,-1.411112 0.635,-2.540002 0.635001,-1.12889 1.710974,-1.781529 1.075973,-0.652639 2.434168,-0.652639 1.146528,0 2.028473,0.458611 0.881945,0.458611 1.393474,1.270001 L 75.6588,96.683514 v -5.785559 h 1.975557 V 104.2506 h -1.887362 v -1.94028 l 0.229306,0.37042 q -0.49389,0.86431 -1.411113,1.32292 -0.917222,0.45861 -2.010834,0.45861 z m 0.194028,-1.85209 q 0.829028,0 1.481667,-0.40569 0.670279,-0.40569 1.040695,-1.11125 0.388056,-0.7232 0.388056,-1.622779 0,-0.899584 -0.388056,-1.60514 -0.370416,-0.705556 -1.040695,-1.111251 -0.652639,-0.405695 -1.481667,-0.405695 -0.829029,0 -1.499307,0.405695 -0.670278,0.405695 -1.040695,1.111251 -0.370417,0.705556 -0.370417,1.60514 0,0.899579 0.370417,1.622779 0.370417,0.70556 1.023056,1.11125 0.670278,0.40569 1.516946,0.40569 z"
         style="fill:#ffa000"
         id="path4885" />
      <path
         d="m 83.367002,104.46227 q -1.075973,0 -1.887362,-0.47625 -0.81139,-0.49389 -1.270001,-1.3582 -0.440973,-0.88194 -0.440973,-2.02847 v -5.891393 h 1.993196 v 5.715003 q 0,0.65264 0.264584,1.14653 0.264583,0.49389 0.740833,0.77611 0.476251,0.26458 1.093612,0.26458 0.635001,0 1.111251,-0.28222 0.47625,-0.28222 0.740834,-0.79375 0.282222,-0.51153 0.282222,-1.19944 v -5.626813 h 1.975557 v 9.542643 h -1.887362 v -1.86972 l 0.211667,0.24694 q -0.33514,0.88195 -1.111251,1.3582 -0.776112,0.47625 -1.816807,0.47625 z"
         style="fill:#646464"
         id="path4887" />
      <path
         d="m 90.299097,104.2506 v -9.542643 h 1.905001 v 1.922641 l -0.176389,-0.282223 q 0.317501,-0.934862 1.023057,-1.340556 0.705556,-0.423334 1.693334,-0.423334 h 0.582084 v 1.816807 h -0.829029 q -0.987778,0 -1.605139,0.617361 -0.599723,0.599723 -0.599723,1.728613 v 5.503334 z"
         style="fill:#646464"
         id="path4889" />
      <path
         d="m 100.21215,104.46227 q -1.464029,0 -2.575279,-0.7232 -1.093612,-0.72319 -1.534585,-1.94027 l 1.534585,-0.7232 q 0.388056,0.81139 1.058334,1.28764 0.687917,0.47625 1.516945,0.47625 0.70556,0 1.14653,-0.3175 0.44097,-0.3175 0.44097,-0.86431 0,-0.35277 -0.19403,-0.56444 -0.19402,-0.22931 -0.49389,-0.37042 -0.28222,-0.14111 -0.58208,-0.21166 l -1.499306,-0.42334 q -1.234723,-0.352776 -1.852085,-1.058332 -0.599722,-0.723195 -0.599722,-1.675695 0,-0.864307 0.440972,-1.499307 0.440973,-0.652639 1.217084,-1.005417 0.776112,-0.352778 1.746252,-0.352778 1.305275,0 2.328335,0.652639 1.02306,0.635 1.44639,1.781529 l -1.53459,0.723195 q -0.28222,-0.687917 -0.89958,-1.093612 -0.59972,-0.405695 -1.358194,-0.405695 -0.65264,0 -1.040696,0.3175 -0.388055,0.299862 -0.388055,0.793751 0,0.335139 0.176389,0.564445 0.176389,0.211667 0.458611,0.352778 0.282223,0.123472 0.582084,0.211667 l 1.552221,0.458611 q 1.18181,0.335139 1.81681,1.058334 0.635,0.705557 0.635,1.693337 0,0.84666 -0.45861,1.4993 -0.44097,0.635 -1.23473,1.00542 -0.79375,0.35278 -1.85208,0.35278 z"
         style="fill:#646464"
         id="path4891" />
    </g>
  </g>
</svg>
